<svg xmlns="http://www.w3.org/2000/svg" viewBox="0 0 512 512" width="512" height="512">
  
  <rect width="512" height="512" rx="115" fill="#FEEAC9"></rect>
  
  <g fill="#FFD700"><path d="M86 110l9 26 27 2-22 16 8 26-22-15-22 15 8-26-22-16 27-2z"></path></g>
  <g fill="#FF69B4"><path d="M430 138l7 21 22 2-18 13 7 21-18-12-18 12 7-21-18-13 22-2z"></path></g>
  <g fill="#87CEEB"><path d="M118 410l8 24 24 2-19 15 7 24-20-13-20 13 7-24-19-15 24-2z"></path></g>
  
  <g transform="translate(256 256) scale(11) translate(-12 -12)" fill="#FD7979">
    <path d="M20.5 11H19V7c0-1.1-.9-2-2-2h-4V3.5C13 2.12 11.88 1 10.5 1S8 2.12 8 3.5V5H4c-1.1 0-1.99.9-1.99 2v3.8H3.5c1.49 0 2.7 1.21 2.7 2.7s-1.21 2.7-2.7 2.7H2V20c0 1.1.9 2 2 2h3.8v-1.5c0-1.49 1.21-2.7 2.7-2.7s2.7 1.21 2.7 2.7V22H17c1.1 0 2-.9 2-2v-4h1.5c1.38 0 2.5-1.12 2.5-2.5S21.88 11 20.5 11z"></path>
  </g>
</svg>