<svg xmlns="http://www.w3.org/2000/svg" viewBox="0 0 600 220" width="600" height="220">
  <rect width="600" height="220" rx="40" fill="#FFCDC9"></rect>
  <g transform="translate(60 50) scale(5.5) translate(-12 -12)" fill="#FD7979">
    <path d="M20.5 11H19V7c0-1.1-.9-2-2-2h-4V3.5C13 2.12 11.88 1 10.5 1S8 2.12 8 3.5V5H4c-1.1 0-1.99.9-1.99 2v3.8H3.5c1.49 0 2.7 1.21 2.7 2.7s-1.21 2.7-2.7 2.7H2V20c0 1.1.9 2 2 2h3.8v-1.5c0-1.49 1.21-2.7 2.7-2.7s2.7 1.21 2.7 2.7V22H17c1.1 0 2-.9 2-2v-4h1.5c1.38 0 2.5-1.12 2.5-2.5S21.88 11 20.5 11z"></path>
  </g>
  <text x="200" y="120" font-family="&#39;Baloo 2&#39;,&#39;Fredoka&#39;,system-ui,sans-serif" font-weight="800" font-size="78" fill="#FD7979" style="letter-spacing:-1px">Puzzle Fun!</text>
  <text x="202" y="160" font-family="&#39;Fredoka&#39;,system-ui,sans-serif" font-weight="600" font-size="22" fill="#FD7979">For Kids 5–8 Years</text>
</svg>